<?xml version="1.0" encoding="utf-8"?>
<!-- Generator: Adobe Illustrator 18.1.1, SVG Export Plug-In . SVG Version: 6.00 Build 0)  -->
<svg version="1.1" xmlns="http://www.w3.org/2000/svg" xmlns:xlink="http://www.w3.org/1999/xlink" x="0px" y="0px"
	 viewBox="0 0 30 30" enable-background="new 0 0 30 30" xml:space="preserve">
<g id="Layer_2_1_" display="none">
	<rect display="inline" fill="#333333" width="30" height="30"/>
</g>
<g id="Star" display="none">
	<g id="Layer_1_1_">
		<rect x="448" display="inline" fill="#3C2415" width="1152" height="1152"/>
	</g>
	<g id="Layer_2" display="inline">
		<polygon fill="#FFFFFF" points="15,8.7 16.5,13.4 21.5,13.4 17.5,16.1 19,20.8 15,17.7 11,20.7 12.5,16.1 8.5,13.4 13.5,13.4 		
			"/>
	</g>
</g>
<g id="Chandelier" display="none">
	<line display="inline" fill="none" stroke="#FFFFFF" stroke-miterlimit="10" x1="14.5" y1="8" x2="14.5" y2="22"/>
	<line display="inline" fill="none" stroke="#FFFFFF" stroke-miterlimit="10" x1="11" y1="21.5" x2="18" y2="21.5"/>
	<line display="inline" fill="none" stroke="#FFFFFF" stroke-miterlimit="10" x1="12" y1="7.5" x2="17" y2="7.5"/>
	<line display="inline" fill="none" stroke="#FFFFFF" stroke-miterlimit="10" x1="9" y1="15.5" x2="21" y2="15.5"/>
	<rect x="16.5" y="11.5" display="inline" fill="#FFFFFF" stroke="#FFFFFF" stroke-miterlimit="10" width="1" height="4"/>
	<rect x="11.5" y="11.5" display="inline" fill="#FFFFFF" stroke="#FFFFFF" stroke-miterlimit="10" width="1" height="4"/>
	<rect x="16.5" y="17.5" display="inline" fill="#FFFFFF" stroke="#FFFFFF" stroke-miterlimit="10" width="1" height="4"/>
	<rect x="11.5" y="17.5" display="inline" fill="#FFFFFF" stroke="#FFFFFF" stroke-miterlimit="10" width="1" height="4"/>
	<rect x="8.5" y="11.5" display="inline" fill="#FFFFFF" stroke="#FFFFFF" stroke-miterlimit="10" width="1" height="4"/>
	<rect x="19.5" y="11.5" display="inline" fill="#FFFFFF" stroke="#FFFFFF" stroke-miterlimit="10" width="1" height="4"/>
</g>
<g id="View" display="none">
	<rect x="9.5" y="9.5" display="inline" fill="none" stroke="#FFFFFF" stroke-miterlimit="10" width="11" height="11"/>
	<rect x="11" y="11" display="inline" fill="#FFFFFF" width="2" height="8"/>
	<rect x="14" y="11" display="inline" fill="#FFFFFF" width="2" height="8"/>
	<rect x="17" y="11" display="inline" fill="#FFFFFF" width="2" height="8"/>
</g>
<g id="Chemex">
	<g id="t7dTt5_1_">
		
			<image overflow="visible" width="1000" height="1000" id="t7dTt5" xlink:href="DB9953EFD5D01214.jpg"  transform="matrix(1.735417e-02 0 0 1.735417e-02 -31.3646 -22.0417)">
		</image>
	</g>
	<path fill="none" stroke="#FFFFFF" stroke-width="0.25" stroke-miterlimit="10" d="M8.5-23.6c-0.7,1.3-1.1,2.3-1.4,3H2.3
		c-0.3-0.7-0.8-1.7-1.4-3H8.5z"/>
	<path fill="none" stroke="#FFFFFF" stroke-width="0.25" stroke-miterlimit="10" d="M8.3-14.2H1c0.6-1.6,1.1-2.6,1.3-3.4H7
		C7.3-16.9,7.7-15.8,8.3-14.2z"/>
	<path fill="#FFFFFF" stroke="#FFFFFF" stroke-width="0.25" stroke-miterlimit="10" d="M7-17.6H2.4c0.4-1.1,0.4-1.8-0.1-3h4.8
		C6.6-19.4,6.6-18.8,7-17.6z"/>
	<path fill="#FFFFFF" stroke="#FFFFFF" stroke-width="0.25" stroke-miterlimit="10" d="M8.7-12.9c0,0.7-0.6,1.3-1.3,1.3H1.9
		c-0.7,0-1.3-0.6-1.3-1.3c0-0.1,0-0.2,0-0.2c0,0,0,0,0,0c0.1-0.1,0.1-0.2,0.1-0.3C0.9-13.8,0.9-14,1-14.2h7.3
		c0.1,0.2,0.2,0.4,0.2,0.7c0,0.1,0.1,0.2,0.1,0.3c0,0,0,0,0,0C8.7-13.1,8.7-13,8.7-12.9z"/>
	<path fill="#ED1E79" stroke="#ED1E79" stroke-width="0.25" stroke-miterlimit="10" d="M27.6-20.6v3h-2.3c0.4-1.1,0.4-1.8-0.1-3
		H27.6z"/>
	<path fill="#ED1E79" stroke="#ED1E79" stroke-width="0.25" stroke-miterlimit="10" d="M27.6-14.2v2.6h-2.8c-0.7,0-1.3-0.6-1.3-1.3
		c0-0.1,0-0.2,0-0.2c0,0,0,0,0,0c0.1-0.1,0.1-0.2,0.1-0.3c0.1-0.2,0.2-0.5,0.2-0.7H27.6z"/>
	<path fill="none" stroke="#ED1E79" stroke-width="0.25" stroke-miterlimit="10" d="M27.6-23.6v12h-2.8c-0.7,0-1.3-0.6-1.3-1.3
		c0-0.1,0-0.2,0-0.2c0,0,0,0,0,0c0.1-0.1,0.1-0.2,0.1-0.3c0.7-2,1.3-3.2,1.6-4.1c0.4-1.1,0.4-1.8-0.1-3c-0.3-0.7-0.8-1.7-1.4-3H27.6
		z"/>
	<path fill="#ED1E79" stroke="#ED1E79" stroke-width="0.25" stroke-miterlimit="10" d="M27.6-20.6v3h2.3c-0.4-1.1-0.4-1.8,0.1-3
		H27.6z"/>
	<path fill="#ED1E79" stroke="#ED1E79" stroke-width="0.25" stroke-miterlimit="10" d="M27.6-14.2v2.6h2.8c0.7,0,1.3-0.6,1.3-1.3
		c0-0.1,0-0.2,0-0.2c0,0,0,0,0,0c-0.1-0.1-0.1-0.2-0.1-0.3c-0.1-0.2-0.2-0.5-0.2-0.7H27.6z"/>
	<path fill="none" stroke="#ED1E79" stroke-width="0.25" stroke-miterlimit="10" d="M27.6-23.6l0,12h2.8c0.7,0,1.3-0.6,1.3-1.3
		c0-0.1,0-0.2,0-0.2c0,0,0,0,0,0c-0.1-0.1-0.1-0.2-0.1-0.3c-0.7-2-1.3-3.2-1.6-4.1c-0.4-1.1-0.4-1.8,0.1-3c0.3-0.7,0.8-1.7,1.4-3
		H27.6z"/>
	<g id="phkbgM_1_">
		
			<image overflow="visible" width="701" height="491" id="phkbgM" xlink:href="DB9953EFD5D0121B.jpg"  transform="matrix(3.013469e-02 0 0 3.013469e-02 -31.3646 16.6717)">
		</image>
	</g>
	<path fill="none" stroke="#FFFFFF" stroke-miterlimit="10" d="M7.3,11.2c3.7,0.5,0.4,5,4.8,5.7"/>
	<polygon fill="#FFFFFF" stroke="#FFFFFF" stroke-miterlimit="10" points="18.8,18.4 11.4,18.4 13.3,11.8 16.9,11.8 	"/>
	<line fill="none" stroke="#FFFFFF" stroke-miterlimit="10" x1="17.1" y1="12.6" x2="19" y2="11.5"/>
	<line fill="none" stroke="#FFFFFF" stroke-linecap="round" stroke-miterlimit="10" x1="19" y1="11.5" x2="21.8" y2="14.9"/>
	<path fill="#FFFFFF" d="M16,9v0.2c0,0.5-0.5,0.9-1,0.9s-1-0.4-1-0.9V9H16z"/>
</g>
</svg>
