<?xml version="1.0" encoding="utf-8"?>
<!-- Generator: Adobe Illustrator 18.1.1, SVG Export Plug-In . SVG Version: 6.00 Build 0)  -->
<svg version="1.1" id="Layer_1" xmlns="http://www.w3.org/2000/svg" xmlns:xlink="http://www.w3.org/1999/xlink" x="0px" y="0px"
	 viewBox="0 0 841.9 595.3" enable-background="new 0 0 841.9 595.3" xml:space="preserve">
<path fill="#FFFFFF" d="M817.7,179.2c0-4.2-2.1-7.4-4.2-10.5c-6.3-16.8-23.2-33.7-63.1-33.7H703c2.1-16.8,2.1-34.7,2.1-52.6H23.2
	c0,168.4,81,314.7,186.3,385.2v46.3h326.2v-60c21-11.6,31.6-25.3,45.3-40c0,0,1.1,0,2.1-1.1c1.1-1.1,3.2-3.2,5.3-4.2h28.4
	c107.3,0,204.2-100,204.2-213.6v-5.3C818.7,186.6,817.7,181.4,817.7,179.2z M776.6,194c0,89.5-72.6,171.5-154.7,171.5h-1.1
	c36.8-52.6,63.1-117.9,75.8-189.4h53.7c10.5,0,16.8,1.1,20,3.2c2.1,1.1,4.2,3.2,4.2,5.3c1.1,1.1,1.1,2.1,2.1,4.2v1.1L776.6,194
	L776.6,194z"/>
</svg>
