<?xml version="1.0" encoding="utf-8"?>
<!-- Generator: Adobe Illustrator 18.1.1, SVG Export Plug-In . SVG Version: 6.00 Build 0)  -->
<svg version="1.1" id="Layer_1" xmlns="http://www.w3.org/2000/svg" xmlns:xlink="http://www.w3.org/1999/xlink" x="0px" y="0px"
	 viewBox="-287 164.4 266.9 266.9" enable-background="new -287 164.4 266.9 266.9" xml:space="preserve">
<path id="Blue_1_" d="M-54.7,408.9c6.8,0,12.3-5.5,12.3-12.3V199c0-6.8-5.5-12.3-12.3-12.3h-197.6c-6.8,0-12.3,5.5-12.3,12.3v197.6
	c0,6.8,5.5,12.3,12.3,12.3H-54.7z"/>
<path id="f" fill="#FFFFFF" d="M-111.3,408.9v-86h28.9l4.3-33.5h-33.2v-21.4c0-9.7,2.7-16.3,16.6-16.3l17.8,0v-30
	c-3.1-0.4-13.6-1.3-25.9-1.3c-25.6,0-43.1,15.6-43.1,44.3v24.7h-29v33.5h29v86H-111.3z"/>
</svg>
