<?xml version="1.0" encoding="utf-8"?>
<!-- Generator: Adobe Illustrator 18.1.1, SVG Export Plug-In . SVG Version: 6.00 Build 0)  -->
<svg version="1.1" id="Layer_1" xmlns="http://www.w3.org/2000/svg" xmlns:xlink="http://www.w3.org/1999/xlink" x="0px" y="0px"
	 viewBox="0 0 160 42" enable-background="new 0 0 160 42" xml:space="preserve">
<path fill="#603813" d="M-393.5,341.9c-11.6,0-21,9.4-21,21c0,11.6,9.4,21,21,21c11.6,0,21-9.4,21-21
	C-372.5,351.3-381.9,341.9-393.5,341.9z M-393.5,381.9c-10.5,0-19-8.5-19-19c0-10.5,8.5-19,19-19c10.5,0,19,8.5,19,19
	C-374.5,373.4-383,381.9-393.5,381.9z"/>
<circle fill="#351503" stroke="#190902" stroke-width="2" stroke-miterlimit="10" cx="-393.5" cy="362.9" r="13"/>
<g>
	<path fill="#603813" d="M-373.7,372v7.6h12.4V372H-373.7z M-362.5,378.3h-9.9v-5.1h9.9V378.3z"/>
	<polygon fill="#603813" points="-359,383.7 -376,383.7 -374,380.3 -360.9,380.3 	"/>
</g>
<path fill="#FFFFFF" d="M-383.3,361.1c0-0.1,0-0.2-0.1-0.2c-0.1-0.4-0.5-0.8-1.5-0.8h-1.1c0-0.4,0.1-0.8,0.1-1.2h-15.8
	c0,3.9,1.9,7.3,4.3,8.9v1.1h7.6v-1.4c0.5-0.3,0.7-0.6,1.1-0.9c0,0,0,0,0,0c0,0,0.1-0.1,0.1-0.1h0.6c2.5,0,4.7-2.3,4.7-5v-0.1
	C-383.3,361.3-383.3,361.1-383.3,361.1z M-384.3,361.5c0,2.1-1.7,4-3.6,4h0c0.9-1.2,1.5-2.7,1.8-4.4h1.2c0.3,0,0.4,0,0.5,0.1
	c0.1,0,0.1,0.1,0.1,0.1c0,0,0,0.1,0,0.1c0,0,0,0,0,0V361.5z"/>
<path d="M71.5,8.1c0-0.1,0-0.2-0.1-0.2C71.3,7.4,70.9,7,70,7h-1.1c0-0.4,0.1-0.8,0.1-1.2H53.1c0,3.9,1.9,7.3,4.3,8.9v1.1H65v-1.4
	c0.5-0.3,0.7-0.6,1.1-0.9c0,0,0,0,0,0c0,0,0.1-0.1,0.1-0.1h0.6c2.5,0,4.7-2.3,4.7-5V8.3C71.6,8.2,71.5,8.1,71.5,8.1z M70.6,8.4
	c0,2.1-1.7,4-3.6,4h0c0.9-1.2,1.5-2.7,1.8-4.4H70c0.3,0,0.4,0,0.5,0.1c0.1,0,0.1,0.1,0.1,0.1c0,0,0,0.1,0,0.1c0,0,0,0,0,0V8.4z"/>
<text transform="matrix(1 0 0 1 73.4502 14.8181)" font-family="'HelveticaNeue-Medium'" font-size="10">Вкус капучино</text>
<g>
	<path d="M55.1,23.3v7.6h12.4v-7.6H55.1z M66.3,29.7h-9.9v-5.1h9.9V29.7z"/>
	<polygon points="69.8,35.1 52.8,35.1 54.8,31.7 67.9,31.7 	"/>
</g>
<text transform="matrix(1 0 0 1 73.5 32.4555)" font-family="'HelveticaNeue-Medium'" font-size="10">Удобство работы</text>
<circle fill="none" stroke="#000000" stroke-width="2" stroke-miterlimit="10" cx="21.3" cy="21" r="13.4"/>
<circle fill="none" stroke="#000000" stroke-miterlimit="10" cx="21.3" cy="21" r="19.2"/>
<line fill="none" stroke="#000000" stroke-miterlimit="10" x1="51.5" y1="10.4" x2="29.2" y2="10.4"/>
<line fill="none" stroke="#000000" stroke-miterlimit="10" x1="53.5" y1="28.4" x2="39.1" y2="28.4"/>
</svg>
