<?xml version="1.0" encoding="utf-8"?>
<!-- Generator: Adobe Illustrator 18.1.1, SVG Export Plug-In . SVG Version: 6.00 Build 0)  -->
<svg version="1.1" xmlns="http://www.w3.org/2000/svg" xmlns:xlink="http://www.w3.org/1999/xlink" x="0px" y="0px"
	 viewBox="0 0 30 30" enable-background="new 0 0 30 30" xml:space="preserve">
<g id="Layer_2_1_" display="none">
	<rect display="inline" fill="#333333" width="30" height="30"/>
</g>
<g id="Star">
	<g id="Layer_1_1_" display="none">
		<rect x="448" display="inline" fill="#3C2415" width="1152" height="1152"/>
	</g>
	<g id="Layer_2">
		<polygon fill="none" stroke="#FFFFFF" stroke-miterlimit="10" points="15,6.6 17.1,13 23.8,13 18.3,16.6 20.4,22.8 15,18.8 
			9.6,22.7 11.7,16.6 6.2,13 12.9,13 		"/>
	</g>
</g>
<g id="Chandelier" display="none">
	<line display="inline" fill="none" stroke="#FFFFFF" stroke-miterlimit="10" x1="15" y1="6.6" x2="15" y2="10.2"/>
	<line display="inline" fill="none" stroke="#FFFFFF" stroke-miterlimit="10" x1="15" y1="14.6" x2="15" y2="17.7"/>
	<line display="inline" fill="none" stroke="#FFFFFF" stroke-miterlimit="10" x1="11.3" y1="22" x2="18.7" y2="22"/>
	<line display="inline" fill="none" stroke="#FFFFFF" stroke-miterlimit="10" x1="13.1" y1="6.6" x2="16.9" y2="6.6"/>
	<line display="inline" fill="none" stroke="#FFFFFF" stroke-miterlimit="10" x1="6.4" y1="14.6" x2="23.6" y2="14.6"/>
	<rect x="5.2" y="10.2" display="inline" fill="none" stroke="#FFFFFF" stroke-miterlimit="10" width="2.2" height="4.3"/>
	<rect x="9.6" y="10.2" display="inline" fill="none" stroke="#FFFFFF" stroke-miterlimit="10" width="2.2" height="4.3"/>
	<rect x="13.9" y="10.2" display="inline" fill="none" stroke="#FFFFFF" stroke-miterlimit="10" width="2.2" height="4.3"/>
	<rect x="18.3" y="10.2" display="inline" fill="none" stroke="#FFFFFF" stroke-miterlimit="10" width="2.2" height="4.3"/>
	<rect x="9.6" y="17.7" display="inline" fill="none" stroke="#FFFFFF" stroke-miterlimit="10" width="2.2" height="4.3"/>
	<rect x="13.9" y="17.7" display="inline" fill="none" stroke="#FFFFFF" stroke-miterlimit="10" width="2.2" height="4.3"/>
	<rect x="18.3" y="17.7" display="inline" fill="none" stroke="#FFFFFF" stroke-miterlimit="10" width="2.2" height="4.3"/>
	<rect x="22.6" y="10.2" display="inline" fill="none" stroke="#FFFFFF" stroke-miterlimit="10" width="2.2" height="4.3"/>
</g>
<g id="View" display="none">
	
		<rect x="8.2" y="8.2" display="inline" fill="none" stroke="#FFFFFF" stroke-width="0.5" stroke-miterlimit="10" width="13.7" height="13.7"/>
	
		<rect x="10.2" y="10.2" display="inline" fill="none" stroke="#FFFFFF" stroke-width="0.5" stroke-miterlimit="10" width="9.6" height="9.6"/>
	
		<rect x="13.3" y="10.2" display="inline" fill="none" stroke="#FFFFFF" stroke-width="0.5" stroke-miterlimit="10" width="3.5" height="9.6"/>
</g>
</svg>
