<?xml version="1.0" encoding="utf-8"?>
<!-- Generator: Adobe Illustrator 18.1.1, SVG Export Plug-In . SVG Version: 6.00 Build 0)  -->
<svg version="1.1" id="Layer_1" xmlns="http://www.w3.org/2000/svg" xmlns:xlink="http://www.w3.org/1999/xlink" x="0px" y="0px"
	 viewBox="0 0 35.8 28.8" enable-background="new 0 0 35.8 28.8" xml:space="preserve">
<path fill="#231F20" d="M33,5.4c-1.1,0.5-2.3,0.8-3.5,1c1.3-0.8,2.2-2,2.7-3.4c-1.2,0.7-2.5,1.2-3.9,1.5c-1.1-1.2-2.7-1.9-4.5-1.9
	c-3.4,0-6.1,2.7-6.1,6.1c0,0.5,0.1,0.9,0.2,1.4C12.9,9.8,8.4,7.3,5.3,3.6c-0.5,0.9-0.8,2-0.8,3.1c0,2.1,1.1,4,2.7,5.1
	c-1,0-1.9-0.3-2.8-0.8c0,0,0,0.1,0,0.1c0,3,2.1,5.4,4.9,6c-0.5,0.1-1.1,0.2-1.6,0.2c-0.4,0-0.8,0-1.1-0.1c0.8,2.4,3,4.2,5.7,4.2
	c-2.1,1.6-4.7,2.6-7.6,2.6c-0.5,0-1,0-1.5-0.1c2.7,1.7,5.9,2.7,9.4,2.7C23.9,26.7,30,17.4,30,9.3c0-0.3,0-0.5,0-0.8
	C31.2,7.7,32.2,6.6,33,5.4z"/>
</svg>
