<?xml version="1.0" encoding="utf-8"?>
<!-- Generator: Adobe Illustrator 18.1.1, SVG Export Plug-In . SVG Version: 6.00 Build 0)  -->
<svg version="1.1" xmlns="http://www.w3.org/2000/svg" xmlns:xlink="http://www.w3.org/1999/xlink" x="0px" y="0px"
	 viewBox="0 0 30 30" enable-background="new 0 0 30 30" xml:space="preserve">
<g id="Layer_2_1_" display="none">
	<rect display="inline" fill="#333333" width="30" height="30"/>
</g>
<g id="Star" display="none">
	<g id="Layer_1_1_">
		<rect x="448" display="inline" fill="#3C2415" width="1152" height="1152"/>
	</g>
	<g id="Layer_2" display="inline">
		<polygon fill="#FFFFFF" points="15,8.7 16.5,13.4 21.5,13.4 17.5,16.1 19,20.8 15,17.7 11,20.7 12.5,16.1 8.5,13.4 13.5,13.4 		
			"/>
	</g>
</g>
<g id="Chandelier" display="none">
	<line display="inline" fill="none" stroke="#FFFFFF" stroke-miterlimit="10" x1="14.5" y1="8" x2="14.5" y2="22"/>
	<line display="inline" fill="none" stroke="#FFFFFF" stroke-miterlimit="10" x1="11" y1="21.5" x2="18" y2="21.5"/>
	<line display="inline" fill="none" stroke="#FFFFFF" stroke-miterlimit="10" x1="12" y1="7.5" x2="17" y2="7.5"/>
	<line display="inline" fill="none" stroke="#FFFFFF" stroke-miterlimit="10" x1="9" y1="15.5" x2="21" y2="15.5"/>
	<rect x="16.5" y="11.5" display="inline" fill="#FFFFFF" stroke="#FFFFFF" stroke-miterlimit="10" width="1" height="4"/>
	<rect x="11.5" y="11.5" display="inline" fill="#FFFFFF" stroke="#FFFFFF" stroke-miterlimit="10" width="1" height="4"/>
	<rect x="16.5" y="17.5" display="inline" fill="#FFFFFF" stroke="#FFFFFF" stroke-miterlimit="10" width="1" height="4"/>
	<rect x="11.5" y="17.5" display="inline" fill="#FFFFFF" stroke="#FFFFFF" stroke-miterlimit="10" width="1" height="4"/>
	<rect x="8.5" y="11.5" display="inline" fill="#FFFFFF" stroke="#FFFFFF" stroke-miterlimit="10" width="1" height="4"/>
	<rect x="19.5" y="11.5" display="inline" fill="#FFFFFF" stroke="#FFFFFF" stroke-miterlimit="10" width="1" height="4"/>
</g>
<g id="View">
	<rect x="9.5" y="9.5" fill="none" stroke="#FFFFFF" stroke-miterlimit="10" width="11" height="11"/>
	<rect x="11" y="11" fill="#FFFFFF" width="2" height="8"/>
	<rect x="14" y="11" fill="#FFFFFF" width="2" height="8"/>
	<rect x="17" y="11" fill="#FFFFFF" width="2" height="8"/>
</g>
</svg>
